<svg xmlns="http://www.w3.org/2000/svg" width="900" height="1122" viewBox="0 0 900 1122" font-family="ui-monospace, SFMono-Regular, Menlo, Consolas, monospace">
<rect width="900" height="1122" rx="14" fill="#F7F3EE" stroke="#DCD3C6"/>
<text x="40" y="74" font-size="34" font-weight="600" letter-spacing="-0.5" fill="#605A52">flatwhite</text>
<text x="40" y="96" font-size="12" fill="#766957">A flat, warm, light colorscheme &#183; 28 named tokens</text>
<text x="40" y="134" font-size="11" font-weight="600" letter-spacing="1.6" fill="#605A52">NEUTRAL RAMP</text>
<line x1="40" y1="146" x2="860" y2="146" stroke="#DCD3C6"/>
<rect x="40.0" y="174" width="106.9" height="52" rx="8" fill="#605A52" stroke="rgba(46,42,36,0.14)"/><text x="41.0" y="242" font-size="11.5" font-weight="600" fill="#605A52">base1</text><text x="41.0" y="256" font-size="10" fill="#766957" letter-spacing="0.3">#605A52</text>
<rect x="158.9" y="174" width="106.9" height="52" rx="8" fill="#766957" stroke="rgba(46,42,36,0.14)"/><text x="159.9" y="242" font-size="11.5" font-weight="600" fill="#605A52">base2</text><text x="159.9" y="256" font-size="10" fill="#766957" letter-spacing="0.3">#766957</text>
<rect x="277.7" y="174" width="106.9" height="52" rx="8" fill="#998B79" stroke="rgba(46,42,36,0.14)"/><text x="278.7" y="242" font-size="11.5" font-weight="600" fill="#605A52">base3</text><text x="278.7" y="256" font-size="10" fill="#766957" letter-spacing="0.3">#998B79</text>
<rect x="396.6" y="174" width="106.9" height="52" rx="8" fill="#DCD3C6" stroke="rgba(46,42,36,0.14)"/><text x="397.6" y="242" font-size="11.5" font-weight="600" fill="#605A52">base4</text><text x="397.6" y="256" font-size="10" fill="#766957" letter-spacing="0.3">#DCD3C6</text>
<rect x="515.4" y="174" width="106.9" height="52" rx="8" fill="#E4DDD2" stroke="rgba(46,42,36,0.14)"/><text x="516.4" y="242" font-size="11.5" font-weight="600" fill="#605A52">base5</text><text x="516.4" y="256" font-size="10" fill="#766957" letter-spacing="0.3">#E4DDD2</text>
<rect x="634.3" y="174" width="106.9" height="52" rx="8" fill="#F1ECE4" stroke="rgba(46,42,36,0.14)"/><text x="635.3" y="242" font-size="11.5" font-weight="600" fill="#605A52">base6</text><text x="635.3" y="256" font-size="10" fill="#766957" letter-spacing="0.3">#F1ECE4</text>
<rect x="753.1" y="174" width="106.9" height="52" rx="8" fill="#F7F3EE" stroke="rgba(46,42,36,0.14)"/><text x="754.1" y="242" font-size="11.5" font-weight="600" fill="#605A52">base7</text><text x="754.1" y="256" font-size="10" fill="#766957" letter-spacing="0.3">#F7F3EE</text>
<text x="40" y="306" font-size="11" font-weight="600" letter-spacing="1.6" fill="#605A52">SYNTAX ACCENTS</text>
<line x1="40" y1="318" x2="860" y2="318" stroke="#DCD3C6"/>
<rect x="40.0" y="346" width="154.4" height="52" rx="8" fill="#5B5143" stroke="rgba(46,42,36,0.14)"/><text x="41.0" y="414" font-size="11.5" font-weight="600" fill="#605A52">orange_text</text><text x="41.0" y="428" font-size="10" fill="#766957" letter-spacing="0.3">#5B5143</text>
<rect x="206.4" y="346" width="154.4" height="52" rx="8" fill="#525643" stroke="rgba(46,42,36,0.14)"/><text x="207.4" y="414" font-size="11.5" font-weight="600" fill="#605A52">green_text</text><text x="207.4" y="428" font-size="10" fill="#766957" letter-spacing="0.3">#525643</text>
<rect x="372.8" y="346" width="154.4" height="52" rx="8" fill="#465953" stroke="rgba(46,42,36,0.14)"/><text x="373.8" y="414" font-size="11.5" font-weight="600" fill="#605A52">teal_text</text><text x="373.8" y="428" font-size="10" fill="#766957" letter-spacing="0.3">#465953</text>
<rect x="539.2" y="346" width="154.4" height="52" rx="8" fill="#4C5361" stroke="rgba(46,42,36,0.14)"/><text x="540.2" y="414" font-size="11.5" font-weight="600" fill="#605A52">blue_text</text><text x="540.2" y="428" font-size="10" fill="#766957" letter-spacing="0.3">#4C5361</text>
<rect x="705.6" y="346" width="154.4" height="52" rx="8" fill="#614C61" stroke="rgba(46,42,36,0.14)"/><text x="706.6" y="414" font-size="11.5" font-weight="600" fill="#605A52">purple_text</text><text x="706.6" y="428" font-size="10" fill="#766957" letter-spacing="0.3">#614C61</text>
<rect x="40.0" y="448" width="154.4" height="52" rx="8" fill="#806D51" stroke="rgba(46,42,36,0.14)"/><text x="41.0" y="516" font-size="11.5" font-weight="600" fill="#605A52">orange_text_sec</text><text x="41.0" y="530" font-size="10" fill="#766957" letter-spacing="0.3">#806D51</text>
<rect x="206.4" y="448" width="154.4" height="52" rx="8" fill="#6D734E" stroke="rgba(46,42,36,0.14)"/><text x="207.4" y="516" font-size="11.5" font-weight="600" fill="#605A52">green_text_sec</text><text x="207.4" y="530" font-size="10" fill="#766957" letter-spacing="0.3">#6D734E</text>
<rect x="372.8" y="448" width="154.4" height="52" rx="8" fill="#51776B" stroke="rgba(46,42,36,0.14)"/><text x="373.8" y="516" font-size="11.5" font-weight="600" fill="#605A52">teal_text_sec</text><text x="373.8" y="530" font-size="10" fill="#766957" letter-spacing="0.3">#51776B</text>
<rect x="539.2" y="448" width="154.4" height="52" rx="8" fill="#63708A" stroke="rgba(46,42,36,0.14)"/><text x="540.2" y="516" font-size="11.5" font-weight="600" fill="#605A52">blue_text_sec</text><text x="540.2" y="530" font-size="10" fill="#766957" letter-spacing="0.3">#63708A</text>
<rect x="705.6" y="448" width="154.4" height="52" rx="8" fill="#876487" stroke="rgba(46,42,36,0.14)"/><text x="706.6" y="516" font-size="11.5" font-weight="600" fill="#605A52">purple_text_sec</text><text x="706.6" y="530" font-size="10" fill="#766957" letter-spacing="0.3">#876487</text>
<rect x="40.0" y="550" width="154.4" height="52" rx="8" fill="#F7E0C3" stroke="rgba(46,42,36,0.14)"/><text x="41.0" y="618" font-size="11.5" font-weight="600" fill="#605A52">orange_bg</text><text x="41.0" y="632" font-size="10" fill="#766957" letter-spacing="0.3">#F7E0C3</text>
<rect x="206.4" y="550" width="154.4" height="52" rx="8" fill="#E2E9C1" stroke="rgba(46,42,36,0.14)"/><text x="207.4" y="618" font-size="11.5" font-weight="600" fill="#605A52">green_bg</text><text x="207.4" y="632" font-size="10" fill="#766957" letter-spacing="0.3">#E2E9C1</text>
<rect x="372.8" y="550" width="154.4" height="52" rx="8" fill="#D2EBE3" stroke="rgba(46,42,36,0.14)"/><text x="373.8" y="618" font-size="11.5" font-weight="600" fill="#605A52">teal_bg</text><text x="373.8" y="632" font-size="10" fill="#766957" letter-spacing="0.3">#D2EBE3</text>
<rect x="539.2" y="550" width="154.4" height="52" rx="8" fill="#DDE4F2" stroke="rgba(46,42,36,0.14)"/><text x="540.2" y="618" font-size="11.5" font-weight="600" fill="#605A52">blue_bg</text><text x="540.2" y="632" font-size="10" fill="#766957" letter-spacing="0.3">#DDE4F2</text>
<rect x="705.6" y="550" width="154.4" height="52" rx="8" fill="#F1DDF1" stroke="rgba(46,42,36,0.14)"/><text x="706.6" y="618" font-size="11.5" font-weight="600" fill="#605A52">purple_bg</text><text x="706.6" y="632" font-size="10" fill="#766957" letter-spacing="0.3">#F1DDF1</text>
<text x="40" y="682" font-size="11" font-weight="600" letter-spacing="1.6" fill="#605A52">DIFF &#38; VCS</text>
<line x1="40" y1="694" x2="860" y2="694" stroke="#DCD3C6"/>
<rect x="40.0" y="722" width="126.7" height="52" rx="8" fill="#208033" stroke="rgba(46,42,36,0.14)"/><text x="41.0" y="790" font-size="11.5" font-weight="600" fill="#605A52">diff_add</text><text x="41.0" y="804" font-size="10" fill="#766957" letter-spacing="0.3">#208033</text>
<rect x="178.7" y="722" width="126.7" height="52" rx="8" fill="#F2A60D" stroke="rgba(46,42,36,0.14)"/><text x="179.7" y="790" font-size="11.5" font-weight="600" fill="#605A52">diff_change</text><text x="179.7" y="804" font-size="10" fill="#766957" letter-spacing="0.3">#F2A60D</text>
<rect x="317.3" y="722" width="126.7" height="52" rx="8" fill="#795306" stroke="rgba(46,42,36,0.14)"/><text x="318.3" y="790" font-size="11.5" font-weight="600" fill="#605A52">diff_change_dark</text><text x="318.3" y="804" font-size="10" fill="#766957" letter-spacing="0.3">#795306</text>
<rect x="456.0" y="722" width="126.7" height="52" rx="8" fill="#DE1111" stroke="rgba(46,42,36,0.14)"/><text x="457.0" y="790" font-size="11.5" font-weight="600" fill="#605A52">diff_delete</text><text x="457.0" y="804" font-size="10" fill="#766957" letter-spacing="0.3">#DE1111</text>
<rect x="594.7" y="722" width="126.7" height="52" rx="8" fill="#52AEFF" stroke="rgba(46,42,36,0.14)"/><text x="595.7" y="790" font-size="11.5" font-weight="600" fill="#605A52">diff_renamed</text><text x="595.7" y="804" font-size="10" fill="#766957" letter-spacing="0.3">#52AEFF</text>
<rect x="733.3" y="722" width="126.7" height="52" rx="8" fill="#B05353" stroke="rgba(46,42,36,0.14)"/><text x="734.3" y="790" font-size="11.5" font-weight="600" fill="#605A52">red_text_sec</text><text x="734.3" y="804" font-size="10" fill="#766957" letter-spacing="0.3">#B05353</text>
<text x="40" y="854" font-size="11" font-weight="600" letter-spacing="1.6" fill="#605A52">TERMINAL &#183; ANSI 16</text>
<line x1="40" y1="866" x2="860" y2="866" stroke="#DCD3C6"/>
<rect x="40.0" y="894" width="92.0" height="52" rx="8" fill="#605A52" stroke="rgba(46,42,36,0.14)"/><text x="124.0" y="911" text-anchor="end" font-size="11" font-weight="700" fill="rgba(247,243,238,0.92)">0</text><text x="41.0" y="962" font-size="11.5" font-weight="600" fill="#605A52">black</text><text x="41.0" y="976" font-size="10" fill="#766957" letter-spacing="0.3">#605A52</text>
<rect x="144.0" y="894" width="92.0" height="52" rx="8" fill="#B05353" stroke="rgba(46,42,36,0.14)"/><text x="228.0" y="911" text-anchor="end" font-size="11" font-weight="700" fill="rgba(247,243,238,0.92)">1</text><text x="145.0" y="962" font-size="11.5" font-weight="600" fill="#605A52">red</text><text x="145.0" y="976" font-size="10" fill="#766957" letter-spacing="0.3">#B05353</text>
<rect x="248.0" y="894" width="92.0" height="52" rx="8" fill="#6D734E" stroke="rgba(46,42,36,0.14)"/><text x="332.0" y="911" text-anchor="end" font-size="11" font-weight="700" fill="rgba(247,243,238,0.92)">2</text><text x="249.0" y="962" font-size="11.5" font-weight="600" fill="#605A52">green</text><text x="249.0" y="976" font-size="10" fill="#766957" letter-spacing="0.3">#6D734E</text>
<rect x="352.0" y="894" width="92.0" height="52" rx="8" fill="#806D51" stroke="rgba(46,42,36,0.14)"/><text x="436.0" y="911" text-anchor="end" font-size="11" font-weight="700" fill="rgba(247,243,238,0.92)">3</text><text x="353.0" y="962" font-size="11.5" font-weight="600" fill="#605A52">yellow</text><text x="353.0" y="976" font-size="10" fill="#766957" letter-spacing="0.3">#806D51</text>
<rect x="456.0" y="894" width="92.0" height="52" rx="8" fill="#63708A" stroke="rgba(46,42,36,0.14)"/><text x="540.0" y="911" text-anchor="end" font-size="11" font-weight="700" fill="rgba(247,243,238,0.92)">4</text><text x="457.0" y="962" font-size="11.5" font-weight="600" fill="#605A52">blue</text><text x="457.0" y="976" font-size="10" fill="#766957" letter-spacing="0.3">#63708A</text>
<rect x="560.0" y="894" width="92.0" height="52" rx="8" fill="#876487" stroke="rgba(46,42,36,0.14)"/><text x="644.0" y="911" text-anchor="end" font-size="11" font-weight="700" fill="rgba(247,243,238,0.92)">5</text><text x="561.0" y="962" font-size="11.5" font-weight="600" fill="#605A52">magenta</text><text x="561.0" y="976" font-size="10" fill="#766957" letter-spacing="0.3">#876487</text>
<rect x="664.0" y="894" width="92.0" height="52" rx="8" fill="#51776B" stroke="rgba(46,42,36,0.14)"/><text x="748.0" y="911" text-anchor="end" font-size="11" font-weight="700" fill="rgba(247,243,238,0.92)">6</text><text x="665.0" y="962" font-size="11.5" font-weight="600" fill="#605A52">cyan</text><text x="665.0" y="976" font-size="10" fill="#766957" letter-spacing="0.3">#51776B</text>
<rect x="768.0" y="894" width="92.0" height="52" rx="8" fill="#DCD3C6" stroke="rgba(46,42,36,0.14)"/><text x="852.0" y="911" text-anchor="end" font-size="11" font-weight="700" fill="rgba(46,42,36,0.82)">7</text><text x="769.0" y="962" font-size="11.5" font-weight="600" fill="#605A52">white</text><text x="769.0" y="976" font-size="10" fill="#766957" letter-spacing="0.3">#DCD3C6</text>
<rect x="40.0" y="996" width="92.0" height="52" rx="8" fill="#766957" stroke="rgba(46,42,36,0.14)"/><text x="124.0" y="1013" text-anchor="end" font-size="11" font-weight="700" fill="rgba(247,243,238,0.92)">8</text><text x="41.0" y="1064" font-size="11.5" font-weight="600" fill="#605A52">br black</text><text x="41.0" y="1078" font-size="10" fill="#766957" letter-spacing="0.3">#766957</text>
<rect x="144.0" y="996" width="92.0" height="52" rx="8" fill="#DE1111" stroke="rgba(46,42,36,0.14)"/><text x="228.0" y="1013" text-anchor="end" font-size="11" font-weight="700" fill="rgba(247,243,238,0.92)">9</text><text x="145.0" y="1064" font-size="11.5" font-weight="600" fill="#605A52">br red</text><text x="145.0" y="1078" font-size="10" fill="#766957" letter-spacing="0.3">#DE1111</text>
<rect x="248.0" y="996" width="92.0" height="52" rx="8" fill="#208033" stroke="rgba(46,42,36,0.14)"/><text x="332.0" y="1013" text-anchor="end" font-size="11" font-weight="700" fill="rgba(247,243,238,0.92)">10</text><text x="249.0" y="1064" font-size="11.5" font-weight="600" fill="#605A52">br green</text><text x="249.0" y="1078" font-size="10" fill="#766957" letter-spacing="0.3">#208033</text>
<rect x="352.0" y="996" width="92.0" height="52" rx="8" fill="#F2A60D" stroke="rgba(46,42,36,0.14)"/><text x="436.0" y="1013" text-anchor="end" font-size="11" font-weight="700" fill="rgba(46,42,36,0.82)">11</text><text x="353.0" y="1064" font-size="11.5" font-weight="600" fill="#605A52">br yellow</text><text x="353.0" y="1078" font-size="10" fill="#766957" letter-spacing="0.3">#F2A60D</text>
<rect x="456.0" y="996" width="92.0" height="52" rx="8" fill="#52AEFF" stroke="rgba(46,42,36,0.14)"/><text x="540.0" y="1013" text-anchor="end" font-size="11" font-weight="700" fill="rgba(247,243,238,0.92)">12</text><text x="457.0" y="1064" font-size="11.5" font-weight="600" fill="#605A52">br blue</text><text x="457.0" y="1078" font-size="10" fill="#766957" letter-spacing="0.3">#52AEFF</text>
<rect x="560.0" y="996" width="92.0" height="52" rx="8" fill="#614C61" stroke="rgba(46,42,36,0.14)"/><text x="644.0" y="1013" text-anchor="end" font-size="11" font-weight="700" fill="rgba(247,243,238,0.92)">13</text><text x="561.0" y="1064" font-size="11.5" font-weight="600" fill="#605A52">br magenta</text><text x="561.0" y="1078" font-size="10" fill="#766957" letter-spacing="0.3">#614C61</text>
<rect x="664.0" y="996" width="92.0" height="52" rx="8" fill="#465953" stroke="rgba(46,42,36,0.14)"/><text x="748.0" y="1013" text-anchor="end" font-size="11" font-weight="700" fill="rgba(247,243,238,0.92)">14</text><text x="665.0" y="1064" font-size="11.5" font-weight="600" fill="#605A52">br cyan</text><text x="665.0" y="1078" font-size="10" fill="#766957" letter-spacing="0.3">#465953</text>
<rect x="768.0" y="996" width="92.0" height="52" rx="8" fill="#F7F3EE" stroke="rgba(46,42,36,0.14)"/><text x="852.0" y="1013" text-anchor="end" font-size="11" font-weight="700" fill="rgba(46,42,36,0.82)">15</text><text x="769.0" y="1064" font-size="11.5" font-weight="600" fill="#605A52">br white</text><text x="769.0" y="1078" font-size="10" fill="#766957" letter-spacing="0.3">#F7F3EE</text>
</svg>
